<svg width="30" height="23" viewBox="0 0 30 23" fill="none" xmlns="http://www.w3.org/2000/svg">
<path d="M28.5 0.383301H1.5C0.671602 0.383301 0 1.03246 0 1.8333V21.1666C0 21.9674 0.671543 22.6166 1.5 22.6166H28.5C29.3284 22.6166 30 21.9675 30 21.1666V1.8333C30 1.03252 29.3285 0.383301 28.5 0.383301ZM29 21.1667C29 21.4336 28.7762 21.65 28.5 21.65H1.5C1.22385 21.65 1.00002 21.4336 1.00002 21.1667V1.8333C1.00002 1.56635 1.22385 1.34999 1.5 1.34999H28.5C28.7762 1.34999 29 1.56635 29 1.8333V21.1667Z" fill="#252525"/>
<path d="M27.5435 2.31827C27.4114 2.30711 27.2801 2.34716 27.1786 2.42963L15.6435 11.7966C15.2715 12.0989 14.7285 12.0989 14.3565 11.7966L2.82155 2.42957C2.68473 2.31856 2.497 2.2865 2.32913 2.34552C2.16126 2.40454 2.03868 2.54568 2.00762 2.71578C1.97657 2.88587 2.04173 3.05902 2.17854 3.17003L13.7135 12.5365C14.457 13.1416 15.5431 13.1416 16.2866 12.5365L27.8215 3.17009C27.9231 3.08768 27.9866 2.96964 27.9982 2.8419228.0097 2.71419 27.9683 2.58726 27.883 2.4891C27.7978 2.39083 27.6757 2.32943 27.5435 2.31827Z" fill="#252525"/>
<path d="M9.6167 12.4701C9.43969 12.4319 9.25523 12.4894 9.13453 12.6202L2.13451 19.8702C2.00783 19.9956 1.96131 20.1775 2.01299 20.3455C2.06467 20.5136 2.20641 20.6414 2.38336 20.6795C2.56037 20.7177 2.74482 20.6603 2.86553 20.5294L9.86555 13.2794C9.99223 13.154 10.0387 12.9721 9.98707 12.8041C9.93539 12.6361 9.79371 12.5083 9.6167 12.4701Z" fill="#252525"/>
<path d="M20.8655 12.6202C20.7449 12.4894 20.5604 12.4319 20.3834 12.4701C20.2063 12.5083 20.0647 12.6361 20.013 12.8041C19.9613 12.9722 20.0078 13.154 20.1345 13.2794L27.1345 20.5294C27.3244 20.7174 27.6347 20.7244 27.8334 20.5452C28.0321 20.366 28.0464 20.0662 27.8655 19.8702L20.8655 12.6202Z" fill="#252525"/>
</svg>