<svg width="22" height="30" viewBox="0 0 22 30" fill="none" xmlns="http://www.w3.org/2000/svg">
<path d="M10.8163 14.9444C14.4347 14.9444 17.3677 11.8018 17.3677 7.92508C17.3677 4.04859 14.4347 0.905762 10.8163 0.905762C7.19823 0.905762 4.26492 4.04859 4.26492 7.92508C4.2677 11.8005 7.19927 14.9414 10.8163 14.9444ZM10.8163 2.09545C13.8214 2.09545 16.2573 4.70535 16.2573 7.92508C16.2573 11.1448 13.8214 13.7547 10.8163 13.7547C7.81155 13.7547 5.3753 11.1448 5.3753 7.92508C5.38034 4.70777 7.81347 2.10066 10.8163 2.09545Z" fill="#1B6951"/>
<path d="M10.8163 16.6992C7.96833 16.6992 5.31987 17.8829 3.3546 20.0364C1.36135 22.2196 0.267487 25.1996 0.267487 28.4359C0.268356 28.764 0.516534 29.0298 0.822761 29.0307H20.81C21.1164 29.0298 21.3643 28.764 21.3651 28.4359C21.3651 25.2058 20.2714 22.2196 18.2784 20.0424C16.3129 17.8889 13.6646 16.6992 10.8163 16.6992ZM1.38916 27.841C1.51134 25.1523 2.48285 22.6955 4.14294 20.8751C5.89739 18.9536 8.26813 17.895 10.8109 17.895C13.3537 17.895 15.7244 18.9536 17.4787 20.8751C19.1444 22.6955 20.1105 25.1523 20.2327 27.841H1.38916Z" fill="#1B6951"/>
</svg>
