<svg width="26" height="23" viewBox="0 0 26 23" fill="none" xmlns="http://www.w3.org/2000/svg">
<path d="M18.6151 0H7.42013C3.77662 0 0.8125 2.79288 0.8125 6.22589V16.7743C0.8125 20.2071 3.77662 23 7.42013 23H18.6153C22.2586 23 25.2228 20.2071 25.2228 16.7743V6.22589C25.2228 2.79288 22.2586 0 18.6151 0V0ZM23.7917 16.7743C23.7917 19.4636 21.4696 21.6516 18.6151 21.6516H7.42013C4.5657 21.6516 2.24353 19.4636 2.24353 16.7743V6.22589C2.24353 3.53637 4.5657 1.34836 7.42013 1.34836H18.6153C21.4696 1.34836 23.7917 3.53637 23.7917 6.22589V16.7743Z" fill="#252525"/>
<path d="M13.0175 5.25732C9.32072 5.25732 6.31327 8.0578 6.31327 11.5002C6.31327 14.9426 9.32072 17.743 13.0175 17.743C16.7143 17.743 19.7217 14.9426 19.7217 11.5002C19.7217 8.0578 16.7143 5.25732 13.0175 5.25732ZM13.0175 16.4045C10.1135 16.4045 7.75068 14.2045 7.75068 11.5002C7.75068 8.79603 10.1135 6.59581 13.0175 6.59581C15.9217 6.59581 18.2843 8.79603 18.2843 11.5002C18.2843 14.2045 15.9217 16.4045 13.0175 16.4045Z" fill="#252525"/>
<path d="M19.8926 2.95703C18.8499 2.95703 18.0018 3.76773 18.0018 4.76409C18.0018 5.76062 18.8499 6.57132 19.8926 6.57132C20.9353 6.57132 21.7836 5.76062 21.7836 4.76409C21.7836 3.76756 20.9353 2.95703 19.8926 2.95703ZM19.8926 5.25996C19.6066 5.25996 19.3737 5.03745 19.3737 4.76409C19.3737 4.49056 19.6066 4.26821 19.8926 4.26821C20.1788 4.26821 20.4117 4.49056 20.4117 4.76409C20.4117 5.03745 20.1788 5.25996 19.8926 5.25996Z" fill="#252525"/>
</svg>