<svg width="33" height="30" viewBox="0 0 33 30" fill="none" xmlns="http://www.w3.org/2000/svg">
<path d="M30.4877 7.70684C30.452 7.38203 30.0963 7.13315 29.6725 7.13634H23.4768V5.33027C23.4768 2.38637 20.3742 0 16.5475 0C12.7204 0 9.61812 2.38637 9.61812 5.33027V7.13634H3.42247C3.00053 7.13756 2.64833 7.38399 2.60725 7.70684L0.471446 26.595C0.374321 27.4707 0.759001 28.3379 1.5325 28.9853C2.30568 29.6325 3.39636 30.0006 4.53925 29.9999H28.5636C29.7065 30.0006 30.7972 29.6325 31.5704 28.9853C32.3439 28.3379 32.7289 27.4707 32.6318 26.595L30.4877 7.70684ZM11.2486 5.33027C11.2486 3.07911 13.621 1.25418 16.5475 1.25418C19.474 1.25418 21.8464 3.07911 21.8464 5.33027V7.13634H11.2486V5.33027ZM30.3654 28.1375C29.9043 28.528 29.2492 28.7491 28.5636 28.7457H4.53097C3.84536 28.746 3.19128 28.5248 2.72762 28.1363C2.26429 27.7475 2.03405 27.227 2.0936 26.7016L4.16412 8.39052H9.61812V12.3035C8.30708 12.6138 7.48836 13.615 7.69249 14.6585C7.89629 15.7018 9.0618 16.4734 10.4333 16.4734C11.8049 16.4734 12.9701 15.7018 13.1742 14.6585C13.378 13.615 12.5593 12.6138 11.2486 12.3035V8.38415H21.8464V12.3035C20.5353 12.6138 19.7166 13.615 19.9207 14.6585C20.1245 15.7018 21.2901 16.4734 22.6616 16.4734C24.0331 16.4734 25.1983 15.7018 25.4024 14.6585C25.6062 13.615 24.7875 12.6138 23.4768 12.3035V8.38415H28.9225L30.993 26.6952C31.0599 27.2228 30.8316 27.7473 30.3654 28.1375ZM10.3111 13.4699C10.3923 13.4783 10.4744 13.4783 10.5556 13.4699C11.1584 13.5199 11.6055 13.9241 11.573 14.3898C11.5402 14.8557 11.0397 15.2207 10.4333 15.2207C9.8267 15.2207 9.32611 14.8557 9.29362 14.3898C9.26114 13.9241 9.70792 13.5199 10.3111 13.4699ZM22.5393 13.4699C22.6205 13.4783 22.7027 13.4783 22.7839 13.4699C23.3867 13.5199 23.8338 13.9241 23.8013 14.3898C23.7685 14.8557 23.2679 15.2207 22.6616 15.2207C22.055 15.2207 21.5544 14.8557 21.5219 14.3898C21.4894 13.9241 21.9362 13.5199 22.5393 13.4699Z" fill="#1B6951"/>
</svg>
