<svg width="26" height="24" viewBox="0 0 26 24" fill="none" xmlns="http://www.w3.org/2000/svg">
<path d="M25.8413 23.1465L17.9303 15.844C19.5735 14.1599 20.5834 11.9395 20.5834 9.49997C20.5833 4.26173 15.9665 0 10.2917 0C4.61688 0 0 4.26173 0 9.50002C0 14.7383 4.61688 19 10.2917 19C12.9345 19 15.3399 18.0678 17.1644 16.551L25.0754 23.8535C25.1812 23.9512 25.3198 24 25.4584 24C25.597 24 25.7355 23.9512 25.8414 23.8535C26.0529 23.6582 26.0529 23.3418 25.8413 23.1465ZM10.2917 18C5.21463 18 1.08337 14.187 1.08337 9.50002C1.08337 4.81303 5.21463 0.999984 10.2917 0.999984C15.3687 0.999984 19.5 4.81298 19.5 9.50002C19.5 14.187 15.3687 18 10.2917 18Z" fill="#454545"/>
</svg>
