<svg width="29" height="23" viewBox="0 0 29 23" fill="none" xmlns="http://www.w3.org/2000/svg">
<path d="M29.0001 3.07166C27.2237 3.15313 27.2625 3.14649 27.0617 3.16321L28.1137 0.173428C28.1137 0.173428 24.8298 1.37556 23.9973 1.5906C21.811 -0.364926 18.5611 -0.451328 16.2377 0.969703C14.3351 2.13367 13.3139 4.1325 13.6545 6.4688C9.95158 5.95746 6.83166 4.21076 4.36843 1.26622L3.58937 0.335084L3.00723 1.39893C2.27147 2.7432 2.02715 4.28023 2.31908 5.72677C2.43887 6.32022 2.64247 6.88624 2.9245 7.41623L2.25617 7.15852L2.17689 8.26975C2.09653 9.39855 2.47421 10.7162 3.18734 11.7942C3.38814 12.0978 3.64668 12.4312 3.97438 12.7601L3.62901 12.7074L4.05043 13.9807C4.60435 15.6536 5.75485 16.9479 7.24791 17.6675C5.75679 18.2971 4.55221 18.6989 2.57224 19.3471L0.760742 19.9397L2.43392 20.85C3.07186 21.1971 5.3261 22.3563 7.55341 22.7041C12.5044 23.4768 18.0787 22.8475 21.8314 19.4843C24.9923 16.6514 26.0294 12.6218 25.814 8.4284C25.7815 7.79357 25.9562 7.18768 26.3061 6.72265C27.0069 5.79152 28.9957 3.07788 29.0001 3.07166ZM24.983 5.73642C24.4019 6.50847 24.1109 7.49448 24.163 8.51245C24.3804 12.7423 23.2239 16.0226 20.7253 18.2618C17.8066 20.8776 13.0989 21.9044 7.80958 21.0788C6.8517 20.9293 5.86171 20.5946 5.04236 20.2604C6.70239 19.692 7.98431 19.1854 10.0546 18.2103L12.9446 16.8491L9.75379 16.6459C8.2254 16.5485 6.95274 15.8114 6.17045 14.6146C6.58583 14.5906 6.98635 14.5237 7.38515 14.4131L10.4284 13.5697L7.35973 12.8218C5.8686 12.4584 5.01866 11.5706 4.56815 10.8897C4.27234 10.4422 4.07909 9.98386 3.96317 9.56128C4.27084 9.6434 4.62956 9.70193 5.20804 9.75896L8.0483 10.0385L5.79794 8.29162C4.17647 7.0331 3.52667 5.14232 4.00303 3.32465C9.0635 8.54782 15.0051 8.15526 15.6032 8.29333C15.4716 7.02088 15.4681 7.01788 15.4337 6.89674C14.6678 4.2024 16.3463 2.83432 17.1034 2.37122C18.6848 1.40407 21.195 1.25828 22.9337 2.85169C23.3092 3.19558 23.817 3.33087 24.2923 3.21338C24.7189 3.1079 25.069 2.99619 25.4118 2.87463L24.6982 4.90241L25.6091 4.90305C25.4372 5.13246 25.231 5.4071 24.983 5.73642Z" fill="white"/>
</svg>