<svg width="38" height="31" viewBox="0 0 38 31" fill="none" xmlns="http://www.w3.org/2000/svg">
<path d="M38 4.14007C35.6666 4.24988 35.7176 4.24092 35.4538 4.26346L36.8357 0.233751C36.8357 0.233751 32.5222 1.85401 31.4286 2.14385C28.5567 -0.491857 24.2878 -0.608312 21.2359 1.30699C18.7367 2.87582 17.3953 5.5699 17.8427 8.71882C12.9787 8.02962 8.88051 5.67537 5.64491 1.70664L4.62157 0.451635L3.85689 1.88551C2.89043 3.69736 2.5695 5.769 2.95297 7.71869C3.11032 8.51856 3.37776 9.28145 3.74821 9.99578L2.87033 9.64844L2.76619 11.1462C2.66063 12.6676 3.15673 14.4436 4.09348 15.8966C4.35724 16.3058 4.69685 16.7551 5.1273 17.1984L4.67364 17.1273L5.2272 18.8435C5.9548 21.0984 7.46605 22.8429 9.42727 23.8127C7.4686 24.6614 5.88632 25.2029 3.2855 26.0765L0.905998 26.8752L3.10381 28.1022C3.94179 28.57 6.90287 30.1325 9.82857 30.6012C16.332 31.6426 23.6542 30.7945 28.5836 26.2614C32.7355 22.4432 34.0979 17.012 33.8149 11.36C33.7722 10.5044 34.0017 9.68774 34.4613 9.06096C35.3819 7.80596 37.9943 4.14845 38 4.14007ZM32.7234 7.73169C31.9601 8.77228 31.5778 10.1013 31.6463 11.4733C31.9318 17.1744 30.4126 21.5957 27.1306 24.6137C23.2968 28.1394 17.1128 29.5233 10.1651 28.4105C8.90683 28.2091 7.60642 27.758 6.53015 27.3075C8.7107 26.5414 10.3946 25.8586 13.114 24.5443L16.9102 22.7097L12.7189 22.4357C10.7113 22.3045 9.03955 21.311 8.01196 19.698C8.5576 19.6656 9.0837 19.5755 9.60754 19.4264L13.605 18.2896L9.57415 17.2816C7.61547 16.7918 6.49902 15.5952 5.90726 14.6774C5.51869 14.0743 5.26484 13.4565 5.11258 12.8869C5.51671 12.9976 5.98791 13.0765 6.74778 13.1534L10.4786 13.5302L7.52265 11.1757C5.39276 9.47939 4.53921 6.93095 5.16494 4.48105C11.8122 11.521 19.6169 10.9919 20.4025 11.178C20.2296 9.46292 20.225 9.45888 20.1798 9.29561C19.1737 5.6641 21.3786 3.82018 22.373 3.196C24.4503 1.89245 27.7476 1.69595 30.0314 3.84358C30.5247 4.30709 31.1918 4.48943 31.8161 4.33108C32.3764 4.1889 32.8363 4.03835 33.2866 3.8745L32.3492 6.60759L33.5458 6.60846C33.3199 6.91766 33.0491 7.28783 32.7234 7.73169Z" fill="#BF2A2A"/>
</svg>