<svg width="33" height="31" viewBox="0 0 33 31" fill="none" xmlns="http://www.w3.org/2000/svg">
<path d="M23.9351 0H9.2298C4.44384 0 0.550289 3.76431 0.550289 8.39142V22.6088C0.550289 27.2357 4.44384 31 9.2298 31H23.9353C28.721 31 32.6146 27.2357 32.6146 22.6088V8.39142C32.6146 3.76431 28.721 0 23.9351 0V0ZM30.7348 22.6088C30.7348 26.2336 27.6845 29.1826 23.9351 29.1826H9.2298C5.48034 29.1826 2.43004 26.2336 2.43004 22.6088V8.39142C2.43004 4.76641 5.48034 1.81735 9.2298 1.81735H23.9353C27.6845 1.81735 30.7348 4.76641 30.7348 8.39142V22.6088Z" fill="#BF2A2A"/>
<path d="M16.583 7.08594C11.7271 7.08594 7.77663 10.8605 7.77663 15.5002C7.77663 20.1399 11.7271 23.9145 16.583 23.9145C21.439 23.9145 25.3894 20.1399 25.3894 15.5002C25.3894 10.8605 21.439 7.08594 16.583 7.08594ZM16.583 22.1105C12.7684 22.1105 9.66475 19.1452 9.66475 15.5002C9.66475 11.8555 12.7684 8.88999 16.583 8.88999C20.3978 8.88999 23.5013 11.8555 23.5013 15.5002C23.5013 19.1452 20.3978 22.1105 16.583 22.1105Z" fill="#BF2A2A"/>
<path d="M25.6139 3.98584C24.2442 3.98584 23.1301 5.07852 23.1301 6.42144C23.1301 7.76458 24.2442 8.85727 25.6139 8.85727C26.9836 8.85727 28.0978 7.76458 28.0978 6.42144C28.0978 5.07829 26.9836 3.98584 25.6139 3.98584ZM25.6139 7.08979C25.2381 7.08979 24.9323 6.78988 24.9323 6.42144C24.9323 6.05276 25.2381 5.75309 25.6139 5.75309C25.9898 5.75309 26.2957 6.05276 26.2957 6.42144C26.2957 6.78988 25.9898 7.08979 25.6139 7.08979Z" fill="#BF2A2A"/>
</svg>