<svg width="19" height="27" viewBox="0 0 19 27" fill="none" xmlns="http://www.w3.org/2000/svg">
<path d="M9.50001 0C4.50757 0 0.445953 4.38655 0.445953 9.77833C0.445953 16.4697 8.54844 26.293 8.89341 26.7079C9.21744 27.0977 9.78316 27.097 10.1066 26.7079C10.4516 26.293 18.5541 16.4697 18.5541 9.77833C18.554 4.38655 14.4924 0 9.50001 0ZM9.50001 24.7709C6.7731 21.2726 2.07642 14.3708 2.07642 9.77843C2.07642 5.3575 5.4066 1.76091 9.50001 1.76091C13.5934 1.76091 16.9236 5.3575 16.9236 9.77838C16.9235 14.3709 12.2276 21.2715 9.50001 24.7709Z" fill="white"/>
<path d="M9.5 4.85889C6.98819 4.85889 4.94473 7.06587 4.94473 9.77864C4.94473 12.4914 6.98824 14.6984 9.5 14.6984C12.0118 14.6984 14.0552 12.4914 14.0552 9.77864C14.0552 7.06587 12.0118 4.85889 9.5 4.85889ZM9.5 12.9375C7.88721 12.9375 6.5752 11.5205 6.5752 9.77864C6.5752 8.03682 7.88726 6.61979 9.5 6.61979C11.1127 6.61979 12.4248 8.03682 12.4248 9.77864C12.4248 11.5205 11.1127 12.9375 9.5 12.9375Z" fill="white"/>
</svg>