<svg width="212" height="24" viewBox="0 0 212 24" fill="none" xmlns="http://www.w3.org/2000/svg">
<path d="M18.075 19.725C17.7083 20.9917 17.1833 21.9417 16.5 22.575C15.6833 23.325 14.5583 23.7 13.125 23.7C12.3583 23.7 11.6083 23.5833 10.875 23.35C10.1417 23.1167 9.21667 22.75 8.1 22.25C6.86667 21.7167 5.85833 21.3167 5.075 21.05L4.475 20.875C3.75833 21.125 3.06667 21.25 2.4 21.25C1.63333 21.25 1.25 21.0833 1.25 20.75C1.25 20.4 1.7 20.225 2.6 20.225C3.18333 20.225 3.80833 20.2917 4.475 20.425C5.00833 20.275 5.625 20.0417 6.325 19.725C6.75833 19.525 7.08333 19.3833 7.3 19.3C5.88333 19.1667 4.65 18.725 3.6 17.975C2.56667 17.225 1.75833 16.2 1.175 14.9C0.608333 13.5833 0.325 12.05 0.325 10.3C0.325 8.46667 0.658333 6.84167 1.325 5.425C2.00833 4.00833 2.95 2.90833 4.15 2.125C5.36667 1.34167 6.74167 0.949998 8.275 0.949998C9.85833 0.949998 11.2417 1.30833 12.425 2.025C13.625 2.74167 14.55 3.78333 15.2 5.15C15.8667 6.5 16.2 8.11667 16.2 10C16.2 11.7333 15.9 13.2833 15.3 14.65C14.7 16 13.8583 17.0833 12.775 17.9C11.6917 18.7 10.45 19.1667 9.05 19.3V19.325C8.65 19.375 8.3 19.4417 8 19.525C7.71667 19.625 7.33333 19.775 6.85 19.975C6.25 20.2417 5.75 20.4333 5.35 20.55C7.2 20.9167 8.76667 21.2083 10.05 21.425C11.35 21.6417 12.425 21.75 13.275 21.75C14.4583 21.75 15.3917 21.575 16.075 21.225C16.775 20.8917 17.3167 20.3417 17.7 19.575L18.075 19.725ZM2.825 10.2C2.825 11.9333 3.06667 13.4583 3.55 14.775C4.05 16.0917 4.71667 17.1083 5.55 17.825C6.38333 18.5417 7.31667 18.9 8.35 18.9C9.41667 18.9 10.35 18.5333 11.15 17.8C11.9667 17.05 12.5917 16.0083 13.025 14.675C13.475 13.3417 13.7 11.8167 13.7 10.1C13.7 8.36667 13.45 6.84167 12.95 5.525C12.4667 4.20833 11.8083 3.19167 10.975 2.475C10.1417 1.75833 9.20833 1.4 8.175 1.4C7.10833 1.4 6.16667 1.775 5.35 2.525C4.55 3.25833 3.925 4.29167 3.475 5.625C3.04167 6.95833 2.825 8.48333 2.825 10.2ZM41.2588 1.8C40.6755 1.83333 40.2421 1.925 39.9588 2.075C39.6755 2.20833 39.4838 2.44167 39.3838 2.775C39.2838 3.09167 39.2338 3.56667 39.2338 4.2V11.725C39.2338 12.925 39.1505 13.9583 38.9838 14.825C38.8338 15.675 38.5755 16.4083 38.2088 17.025C37.7921 17.7417 37.1755 18.3083 36.3588 18.725C35.5588 19.1417 34.6505 19.35 33.6338 19.35C31.8005 19.35 30.4005 18.9 29.4338 18C28.7005 17.3167 28.2088 16.5417 27.9588 15.675C27.7088 14.8083 27.5838 13.5167 27.5838 11.8V3.95C27.5838 3.31667 27.5338 2.85833 27.4338 2.575C27.3338 2.29167 27.1421 2.1 26.8588 2C26.5921 1.9 26.1588 1.83333 25.5588 1.8V1.3C26.2588 1.35 27.3255 1.375 28.7588 1.375C30.1088 1.375 31.1671 1.35 31.9338 1.3V1.8C31.3338 1.83333 30.8921 1.9 30.6088 2C30.3421 2.1 30.1588 2.29167 30.0588 2.575C29.9588 2.85833 29.9088 3.31667 29.9088 3.95V12.225C29.9088 13.5583 30.0005 14.6667 30.1838 15.55C30.3671 16.4333 30.7421 17.1417 31.3088 17.675C31.8921 18.2083 32.7421 18.475 33.8588 18.475C35.6255 18.475 36.8671 17.9083 37.5838 16.775C38.3005 15.6417 38.6588 14.05 38.6588 12V4.2C38.6588 3.3 38.4921 2.68333 38.1588 2.35C37.8421 2.01667 37.2505 1.83333 36.3838 1.8V1.3C36.9838 1.35 37.8338 1.375 38.9338 1.375C39.9338 1.375 40.7088 1.35 41.2588 1.3V1.8ZM56.8498 1.8C56.2498 1.83333 55.8081 1.9 55.5248 2C55.2581 2.1 55.0748 2.29167 54.9748 2.575C54.8748 2.85833 54.8248 3.31667 54.8248 3.95V16.35C54.8248 16.9833 54.8748 17.4417 54.9748 17.725C55.0748 18.0083 55.2581 18.2 55.5248 18.3C55.8081 18.4 56.2498 18.4667 56.8498 18.5V19C56.0831 18.95 55.0248 18.925 53.6748 18.925C52.2415 18.925 51.1748 18.95 50.4748 19V18.5C51.0748 18.4667 51.5081 18.4 51.7748 18.3C52.0581 18.2 52.2498 18.0083 52.3498 17.725C52.4498 17.4417 52.4998 16.9833 52.4998 16.35V3.95C52.4998 3.31667 52.4498 2.85833 52.3498 2.575C52.2498 2.29167 52.0581 2.1 51.7748 2C51.5081 1.9 51.0748 1.83333 50.4748 1.8V1.3C51.1748 1.35 52.2415 1.375 53.6748 1.375C55.0081 1.375 56.0665 1.35 56.8498 1.3V1.8ZM74.4762 0.949998C75.4762 0.949998 76.3262 1.09167 77.0262 1.375C77.7262 1.65833 78.4095 2.05833 79.0762 2.575C79.2595 2.725 79.4178 2.8 79.5512 2.8C79.8845 2.8 80.1012 2.3 80.2012 1.3H80.7762C80.7095 2.38333 80.6762 4.3 80.6762 7.05H80.1012C79.9178 5.96667 79.7512 5.19167 79.6012 4.725C79.4512 4.24167 79.2012 3.78333 78.8512 3.35C78.3512 2.7 77.7095 2.21667 76.9262 1.9C76.1595 1.56667 75.3262 1.4 74.4262 1.4C73.3428 1.4 72.3928 1.75833 71.5762 2.475C70.7762 3.19167 70.1512 4.21667 69.7012 5.55C69.2512 6.86667 69.0262 8.41667 69.0262 10.2C69.0262 12.0167 69.2678 13.575 69.7512 14.875C70.2345 16.175 70.9012 17.1667 71.7512 17.85C72.6178 18.5167 73.5928 18.85 74.6762 18.85C75.5095 18.85 76.3178 18.6917 77.1012 18.375C77.8845 18.0583 78.5012 17.5833 78.9512 16.95C79.2845 16.4833 79.5262 15.9833 79.6762 15.45C79.8262 14.9167 79.9678 14.1 80.1012 13H80.6762C80.6762 15.8667 80.7095 17.8667 80.7762 19H80.2012C80.1512 18.4667 80.0762 18.0917 79.9762 17.875C79.8928 17.6417 79.7678 17.525 79.6012 17.525C79.4678 17.525 79.2928 17.5917 79.0762 17.725C78.3262 18.2583 77.6095 18.6667 76.9262 18.95C76.2428 19.2167 75.4178 19.35 74.4512 19.35C72.8678 19.35 71.4762 18.9917 70.2762 18.275C69.0928 17.5583 68.1678 16.525 67.5012 15.175C66.8512 13.8083 66.5262 12.1833 66.5262 10.3C66.5262 8.46667 66.8595 6.84167 67.5262 5.425C68.2095 4.00833 69.1512 2.90833 70.3512 2.125C71.5678 1.34167 72.9428 0.949998 74.4762 0.949998ZM104.063 16.975C104.346 17.3917 104.655 17.725 104.988 17.975C105.338 18.2083 105.763 18.3833 106.263 18.5V19C105.463 18.95 104.463 18.925 103.263 18.925C102.363 18.925 101.505 18.95 100.688 19V18.5C101.088 18.4833 101.38 18.4333 101.563 18.35C101.746 18.2667 101.838 18.1417 101.838 17.975C101.838 17.8083 101.755 17.6083 101.588 17.375L97.9381 11.875C97.4548 11.1417 97.0464 10.6667 96.7131 10.45C96.3798 10.2167 95.9131 10.0833 95.3131 10.05V16.35C95.3131 16.9833 95.3631 17.4417 95.4631 17.725C95.5631 18.0083 95.7464 18.2 96.0131 18.3C96.2964 18.4 96.7381 18.4667 97.3381 18.5V19C96.5714 18.95 95.5131 18.925 94.1631 18.925C92.7298 18.925 91.6631 18.95 90.9631 19V18.5C91.5631 18.4667 91.9964 18.4 92.2631 18.3C92.5464 18.2 92.7381 18.0083 92.8381 17.725C92.9381 17.4417 92.9881 16.9833 92.9881 16.35V3.95C92.9881 3.31667 92.9381 2.85833 92.8381 2.575C92.7381 2.29167 92.5464 2.1 92.2631 2C91.9964 1.9 91.5631 1.83333 90.9631 1.8V1.3C91.6631 1.35 92.7298 1.375 94.1631 1.375C95.4964 1.375 96.5548 1.35 97.3381 1.3V1.8C96.7381 1.83333 96.2964 1.9 96.0131 2C95.7464 2.1 95.5631 2.29167 95.4631 2.575C95.3631 2.85833 95.3131 3.31667 95.3131 3.95V9.55C96.5298 9.5 97.4798 9.03333 98.1631 8.15L100.563 5.1C101.413 4.05 101.838 3.25 101.838 2.7C101.838 2.11667 101.321 1.81667 100.288 1.8V1.3C101.238 1.35 102.196 1.375 103.163 1.375C104.08 1.375 104.788 1.35 105.288 1.3V1.8C104.738 1.88333 104.221 2.06667 103.738 2.35C103.255 2.61667 102.788 3.04167 102.338 3.625L98.2631 8.85L104.063 16.975ZM140.716 1.375C141.466 1.375 142.091 1.35 142.591 1.3V1.8C141.758 2 141.099 2.725 140.616 3.975L134.741 19.125H134.541H134.341L128.241 3.4C127.841 2.36667 127.266 1.83333 126.516 1.8V1.3C127.183 1.35 128.074 1.375 129.191 1.375C130.624 1.375 131.691 1.35 132.391 1.3V1.8C131.758 1.83333 131.299 1.91667 131.016 2.05C130.749 2.16667 130.616 2.39167 130.616 2.725C130.616 3.00833 130.716 3.4 130.916 3.9L135.441 15.925L139.516 5.35C139.849 4.45 140.016 3.76667 140.016 3.3C140.016 2.78333 139.833 2.40833 139.466 2.175C139.116 1.94167 138.574 1.81667 137.841 1.8V1.3C138.791 1.35 139.749 1.375 140.716 1.375ZM157.338 1.8C156.738 1.83333 156.296 1.9 156.013 2C155.746 2.1 155.563 2.29167 155.463 2.575C155.363 2.85833 155.313 3.31667 155.313 3.95V16.35C155.313 16.9833 155.363 17.4417 155.463 17.725C155.563 18.0083 155.746 18.2 156.013 18.3C156.296 18.4 156.738 18.4667 157.338 18.5V19C156.571 18.95 155.513 18.925 154.163 18.925C152.73 18.925 151.663 18.95 150.963 19V18.5C151.563 18.4667 151.996 18.4 152.263 18.3C152.546 18.2 152.738 18.0083 152.838 17.725C152.938 17.4417 152.988 16.9833 152.988 16.35V3.95C152.988 3.31667 152.938 2.85833 152.838 2.575C152.738 2.29167 152.546 2.1 152.263 2C151.996 1.9 151.563 1.83333 150.963 1.8V1.3C151.663 1.35 152.73 1.375 154.163 1.375C155.496 1.375 156.555 1.35 157.338 1.3V1.8ZM179.735 15.8C179.735 16.75 179.793 17.8167 179.91 19C178.776 18.95 176.868 18.925 174.185 18.925C170.985 18.925 168.568 18.95 166.935 19V18.5C167.535 18.4667 167.968 18.4 168.235 18.3C168.518 18.2 168.71 18.0083 168.81 17.725C168.91 17.4417 168.96 16.9833 168.96 16.35V3.95C168.96 3.31667 168.91 2.85833 168.81 2.575C168.71 2.29167 168.518 2.1 168.235 2C167.968 1.9 167.535 1.83333 166.935 1.8V1.3C168.568 1.35 170.985 1.375 174.185 1.375C176.635 1.375 178.376 1.35 179.41 1.3C179.293 2.4 179.235 3.38333 179.235 4.25C179.235 4.9 179.26 5.41667 179.31 5.8H178.735C178.618 4.71667 178.468 3.91667 178.285 3.4C178.101 2.86667 177.793 2.48333 177.36 2.25C176.926 2 176.268 1.875 175.385 1.875H173.31C172.71 1.875 172.268 1.925 171.985 2.025C171.718 2.10833 171.535 2.29167 171.435 2.575C171.335 2.85833 171.285 3.31667 171.285 3.95V9.85H172.935C173.518 9.85 173.968 9.71667 174.285 9.45C174.601 9.16667 174.81 8.84167 174.91 8.475C175.026 8.09167 175.118 7.61667 175.185 7.05L175.26 6.55H175.835C175.785 7.25 175.76 8.03333 175.76 8.9V10.1C175.76 10.95 175.81 12.1333 175.91 13.65H175.335C175.318 13.5333 175.268 13.1333 175.185 12.45C175.101 11.75 174.868 11.225 174.485 10.875C174.118 10.525 173.601 10.35 172.935 10.35H171.285V16.35C171.285 16.9833 171.335 17.4417 171.435 17.725C171.535 18.0083 171.718 18.2 171.985 18.3C172.268 18.3833 172.71 18.425 173.31 18.425H175.135C176.168 18.425 176.951 18.2917 177.485 18.025C178.035 17.7417 178.435 17.3 178.685 16.7C178.935 16.0833 179.118 15.1833 179.235 14H179.81C179.76 14.45 179.735 15.05 179.735 15.8ZM209.419 1.375C210.169 1.375 210.794 1.35 211.294 1.3V1.8C210.361 2.01667 209.702 2.74167 209.319 3.975L204.594 19.125H204.394H204.194L199.844 6.25L195.869 19.125H195.669H195.469L190.169 3.4C189.819 2.36667 189.244 1.83333 188.444 1.8V1.3C189.127 1.35 190.019 1.375 191.119 1.375C192.319 1.375 193.219 1.35 193.819 1.3V1.8C193.369 1.83333 193.052 1.91667 192.869 2.05C192.686 2.18333 192.594 2.39167 192.594 2.675C192.594 2.94167 192.686 3.35 192.869 3.9L196.519 15.05L199.569 5.375L198.894 3.4C198.561 2.36667 198.069 1.83333 197.419 1.8V1.3C198.019 1.35 198.827 1.375 199.844 1.375C201.277 1.375 202.344 1.35 203.044 1.3V1.8C202.411 1.83333 201.969 1.90833 201.719 2.025C201.469 2.125 201.344 2.35 201.344 2.7C201.344 3 201.427 3.4 201.594 3.9L205.194 15.025L208.269 5.35C208.536 4.53333 208.669 3.85833 208.669 3.325C208.669 2.775 208.502 2.39167 208.169 2.175C207.836 1.94167 207.294 1.81667 206.544 1.8V1.3C207.494 1.35 208.452 1.375 209.419 1.375Z" fill="white"/>
</svg>